<svg xmlns="http://www.w3.org/2000/svg" xmlns:xlink="http://www.w3.org/1999/xlink" width="180" zoomAndPan="magnify" viewBox="0 0 135 135.000003" height="180" preserveAspectRatio="xMidYMid meet" version="1.0"><defs><clipPath id="id1"><path d="M 5.390625 4 L 129.71875 4 L 129.71875 130 L 5.390625 130 Z M 5.390625 4 " clip-rule="nonzero"/></clipPath></defs><path fill="rgb(95.289612%, 95.689392%, 96.469116%)" d="M 72.261719 60.757812 L 72.261719 60.5625 C 72.222656 60.625 72.179688 60.695312 72.136719 60.757812 Z M 72.261719 60.757812 " fill-opacity="1" fill-rule="nonzero"/><g clip-path="url(#id1)"><path fill="rgb(95.289612%, 95.689392%, 96.469116%)" d="M 120.570312 4.429688 L 14.5625 4.429688 C 9.484375 4.429688 5.375 8.441406 5.375 13.378906 L 5.375 120.363281 C 5.375 125.304688 9.488281 129.308594 14.5625 129.308594 L 120.570312 129.308594 C 125.652344 129.308594 129.761719 125.296875 129.761719 120.363281 L 129.761719 13.378906 C 129.765625 8.4375 125.648438 4.429688 120.570312 4.429688 Z M 43.078125 108.972656 L 24.289062 108.972656 L 24.289062 52.582031 L 43.078125 52.582031 Z M 33.683594 44.878906 L 33.558594 44.878906 C 27.257812 44.878906 23.179688 40.546875 23.179688 35.136719 C 23.179688 29.605469 27.382812 25.394531 33.808594 25.394531 C 40.238281 25.394531 44.191406 29.605469 44.316406 35.136719 C 44.316406 40.546875 40.234375 44.878906 33.683594 44.878906 Z M 110.828125 108.972656 L 92.039062 108.972656 L 92.039062 78.796875 C 92.039062 71.21875 89.320312 66.046875 82.523438 66.046875 C 77.332031 66.046875 74.242188 69.539062 72.882812 72.902344 C 72.386719 74.105469 72.265625 75.785156 72.265625 77.472656 L 72.265625 108.96875 L 53.476562 108.96875 C 53.476562 108.96875 53.722656 57.863281 53.476562 52.578125 L 72.265625 52.578125 L 72.265625 60.5625 C 74.761719 56.71875 79.226562 51.25 89.199219 51.25 C 101.558594 51.25 110.832031 59.3125 110.832031 76.628906 Z M 110.828125 108.972656 " fill-opacity="1" fill-rule="nonzero"/></g></svg>