<svg xmlns="http://www.w3.org/2000/svg" xmlns:xlink="http://www.w3.org/1999/xlink" width="180" zoomAndPan="magnify" viewBox="0 0 135 135.000003" height="180" preserveAspectRatio="xMidYMid meet" version="1.0"><defs><clipPath id="id1"><path d="M 2.796875 5 L 132.335938 5 L 132.335938 134 L 2.796875 134 Z M 2.796875 5 " clip-rule="nonzero"/></clipPath></defs><g clip-path="url(#id1)"><path fill="rgb(98.429871%, 44.309998%, 52.159119%)" d="M 67.566406 5.679688 C 31.796875 5.679688 2.796875 34.683594 2.796875 70.453125 C 2.796875 100.800781 23.695312 126.195312 51.871094 133.222656 C 51.570312 132.351562 51.375 131.335938 51.375 130.078125 L 51.375 119.007812 C 48.746094 119.007812 44.339844 119.007812 43.234375 119.007812 C 38.804688 119.007812 34.863281 117.101562 32.953125 113.5625 C 30.832031 109.625 30.464844 103.609375 25.207031 99.925781 C 23.648438 98.703125 24.835938 97.304688 26.632812 97.492188 C 29.953125 98.433594 32.703125 100.710938 35.296875 104.089844 C 37.875 107.472656 39.089844 108.238281 43.910156 108.238281 C 46.246094 108.238281 49.746094 108.105469 53.039062 107.585938 C 54.808594 103.089844 57.867188 98.949219 61.609375 96.996094 C 40.039062 94.777344 29.746094 84.046875 29.746094 69.480469 C 29.746094 63.207031 32.417969 57.140625 36.957031 52.03125 C 35.46875 46.957031 33.59375 36.609375 37.53125 32.667969 C 47.234375 32.667969 53.101562 38.960938 54.511719 40.664062 C 59.347656 39.003906 64.65625 38.066406 70.238281 38.066406 C 75.832031 38.066406 81.164062 39.003906 86.011719 40.671875 C 87.402344 38.984375 93.277344 32.667969 103.003906 32.667969 C 106.953125 36.613281 105.058594 47.003906 103.550781 52.066406 C 108.066406 57.167969 110.71875 63.21875 110.71875 69.480469 C 110.71875 84.035156 100.445312 94.761719 78.90625 96.992188 C 84.832031 100.082031 89.15625 108.773438 89.15625 115.320312 L 89.15625 130.078125 C 89.15625 130.640625 89.035156 131.042969 88.96875 131.523438 C 114.207031 122.675781 132.335938 98.710938 132.335938 70.453125 C 132.335938 34.683594 103.335938 5.679688 67.566406 5.679688 Z M 67.566406 5.679688 " fill-opacity="1" fill-rule="nonzero"/></g></svg>